<svg width="58" height="56" viewBox="0 0 58 56" fill="none" xmlns="http://www.w3.org/2000/svg">
<path d="M25.3516 0.655852L25.3516 6.98398C25.3516 7.34335 25.5078 7.6871 25.7812 7.92929L45.4922 25.0309L1.5 25.0309C1.15625 25.0309 0.874999 25.3121 0.874999 25.6559L0.874999 30.3434C0.874999 30.6871 1.15625 30.9684 1.5 30.9684L45.4922 30.9683L25.7813 48.0699C25.5078 48.3043 25.3516 48.648 25.3516 49.0152L25.3516 55.3433C25.3516 55.8746 25.9844 56.1637 26.3828 55.8121L56.2656 29.8824C56.536 29.648 56.7529 29.3583 56.9015 29.0327C57.0501 28.7072 57.1271 28.3535 57.1271 27.9957C57.1271 27.6378 57.0501 27.2842 56.9015 26.9587C56.7529 26.6331 56.536 26.3434 56.2656 26.109L26.3828 0.187102C25.9766 -0.16446 25.3516 0.124602 25.3516 0.655852Z" fill="#CDC09F"/>
</svg>
