<svg width="60" height="60" viewBox="0 0 60 60" fill="none" xmlns="http://www.w3.org/2000/svg">
<g clip-path="url(#clip0)">
<path d="M59.808 25.2623L50.1998 10.6109C49.9831 10.2806 49.6149 10.0817 49.22 10.0817H10.8255C10.4314 10.0817 10.0638 10.2797 9.84702 10.6089L0.223343 25.2165C0.177523 25.2797 0.137796 25.3479 0.104632 25.4208C-0.0853288 25.8396 -0.0126725 26.3308 0.290374 26.6767L5.1683 32.2463C5.59475 32.7332 6.33491 32.7822 6.8217 32.3558C7.3085 31.9294 7.35748 31.1891 6.93116 30.7024L3.75573 27.0765H19.5176L27.4379 54.1172L18.4877 43.8979C18.0614 43.411 17.321 43.362 16.8343 43.7883C16.3475 44.2148 16.2985 44.955 16.7249 45.4417L29.1221 59.5969C29.3446 59.851 29.666 59.9967 30.0036 59.9967C30.3414 59.9967 30.6626 59.851 30.885 59.5968L44.0838 44.5227C44.5103 44.0358 44.4612 43.2955 43.9741 42.8693C43.4871 42.4429 42.7468 42.492 42.3207 42.979L32.5696 54.1157L40.4896 27.0764H56.2448L48.9578 35.3991C48.5313 35.886 48.5804 36.6263 49.0674 37.0525C49.2897 37.2473 49.5649 37.3428 49.8389 37.3428C50.1649 37.3428 50.4893 37.2074 50.7208 36.9428L59.7098 26.6766C60.0565 26.2807 60.0967 25.7023 59.808 25.2623ZM3.34838 24.733L10.8232 13.3868L18.264 24.733H3.34838ZM12.9951 12.4253H27.8338L20.4145 23.7387L12.9951 12.4253ZM30.0035 13.3902L37.442 24.733H22.565L30.0035 13.3902ZM30.0035 54.5394L21.9595 27.0765H38.0475L30.0035 54.5394ZM39.6117 23.7681L32.1732 12.4253H47.0504L39.6117 23.7681ZM41.7814 24.733L49.22 13.3902L56.6584 24.733H41.7814Z" fill="white"/>
<path d="M18.4203 38.3223C15.3977 38.3223 12.9385 35.8631 12.9385 32.8405C12.9385 32.1934 12.4138 31.6688 11.7667 31.6688C11.1196 31.6688 10.595 32.1934 10.595 32.8405C10.595 35.8631 8.13578 38.3223 5.11316 38.3223C4.46617 38.3223 3.94141 38.847 3.94141 39.4941C3.94141 40.1412 4.46617 40.6658 5.11316 40.6658C8.13578 40.6658 10.595 43.125 10.595 46.1476C10.595 46.7947 11.1197 47.3194 11.7667 47.3194C12.4137 47.3194 12.9385 46.7947 12.9385 46.1476C12.9385 43.125 15.3977 40.6658 18.4203 40.6658C19.0674 40.6658 19.592 40.1412 19.592 39.4941C19.592 38.847 19.0674 38.3223 18.4203 38.3223ZM11.7667 42.0325C11.1279 41.0033 10.2575 40.133 9.22844 39.4941C10.2575 38.8553 11.1278 37.9849 11.7667 36.9557C12.4055 37.9848 13.276 38.8552 14.305 39.4941C13.276 40.133 12.4056 41.0032 11.7667 42.0325Z" fill="white"/>
<path d="M58.8285 4.69021C56.8903 4.69021 55.3133 3.11321 55.3133 1.17493C55.3133 0.527822 54.7885 0.00317383 54.1415 0.00317383C53.4945 0.00317383 52.9697 0.527822 52.9697 1.17493C52.9697 3.11321 51.3928 4.69021 49.4545 4.69021C48.8075 4.69021 48.2827 5.21485 48.2827 5.86196C48.2827 6.50907 48.8075 7.03372 49.4545 7.03372C51.3928 7.03372 52.9697 8.61071 52.9697 10.549C52.9697 11.1961 53.4945 11.7208 54.1415 11.7208C54.7885 11.7208 55.3133 11.1961 55.3133 10.549C55.3133 8.61071 56.8903 7.03372 58.8285 7.03372C59.4755 7.03372 60.0003 6.50907 60.0003 5.86196C60.0003 5.21485 59.4755 4.69021 58.8285 4.69021ZM54.1415 7.03735C53.8072 6.59228 53.4112 6.1963 52.9661 5.86196C53.4112 5.52763 53.8072 5.13165 54.1415 4.68657C54.4758 5.13165 54.8718 5.52763 55.3169 5.86196C54.8718 6.19618 54.4757 6.59228 54.1415 7.03735Z" fill="white"/>
<path d="M47.2012 39.3013C46.9834 39.0822 46.681 38.9579 46.3729 38.9579C46.0646 38.9579 45.7637 39.0822 45.5445 39.3013C45.3266 39.5193 45.2012 39.8216 45.2012 40.1297C45.2012 40.4378 45.3264 40.7401 45.5445 40.9581C45.7625 41.1761 46.0646 41.3015 46.3729 41.3015C46.6811 41.3015 46.9834 41.1761 47.2012 40.9581C47.4192 40.7401 47.5447 40.4378 47.5447 40.1297C47.5447 39.8216 47.4193 39.5193 47.2012 39.3013Z" fill="white"/>
</g>
<defs>
<clipPath id="clip0">
<rect width="60" height="60" fill="white"/>
</clipPath>
</defs>
</svg>
