<svg width="60" height="60" viewBox="0 0 60 60" fill="none" xmlns="http://www.w3.org/2000/svg">
<g clip-path="url(#clip0)">
<path d="M57.5421 13.1205H54.7277V10.7817C54.7277 8.92754 53.2192 7.41907 51.3651 7.41907H48.6827C46.8286 7.41907 45.3202 8.92754 45.3202 10.7817V20.4095H40.8252V17.8246C40.8252 15.9487 39.2991 14.4226 37.4232 14.4226C36.6861 14.4226 36.0039 14.6591 35.4464 15.059C34.8984 13.9137 33.7281 13.1205 32.3758 13.1205C31.0975 13.1205 29.9818 13.8292 29.4007 14.8744C28.8264 14.4316 28.108 14.1669 27.3283 14.1669C26.1451 14.1669 25.102 14.7748 24.4924 15.6941C23.8972 15.1835 23.1247 14.8741 22.281 14.8741C20.405 14.8741 18.879 16.4001 18.879 18.2761V20.4097H14.6801V17.9303C14.6801 17.4451 14.2869 17.0519 13.8018 17.0519C13.3168 17.0519 12.9235 17.4451 12.9235 17.9303V38.3343C12.9235 39.2199 12.2031 39.9402 11.3176 39.9402H8.63488C7.74931 39.9402 7.02897 39.2199 7.02897 38.3343V10.7817C7.02897 9.89615 7.74943 9.1757 8.63488 9.1757H11.3173C12.2028 9.1757 12.9232 9.89615 12.9232 10.7817V14.187C12.9232 14.6722 13.3164 15.0653 13.8015 15.0653C14.2865 15.0653 14.6798 14.6722 14.6798 14.187V10.7817C14.6798 8.92754 13.1713 7.41907 11.3173 7.41907H8.63488C6.7807 7.41907 5.27235 8.92754 5.27235 10.7817V13.1205H2.45788C1.10258 13.1205 0 14.2231 0 15.5783V33.5376C0 34.8929 1.10258 35.9954 2.45788 35.9954H5.27235V38.3342C5.27235 40.1883 6.78082 41.6967 8.63488 41.6967H11.3173C13.1714 41.6967 14.6798 40.1883 14.6798 38.3342V28.7065H17.6897V30.3103C17.6897 31.1345 17.978 31.939 18.5018 32.5757L21.2294 35.892V51.7025C21.2294 52.1877 21.6227 52.5808 22.1078 52.5808C22.5928 52.5808 22.9861 52.1877 22.9861 51.7025V35.5772C22.9861 35.3737 22.9153 35.1765 22.7861 35.0192L19.8583 31.4597C19.5926 31.1367 19.4462 30.7285 19.4462 30.3103V28.7065L36.0567 28.808C36.5417 28.808 36.935 28.4149 36.935 27.9297C36.935 27.4445 36.5417 27.0514 36.0567 27.0514H32.0603C31.2359 27.0514 30.5651 26.3806 30.5651 25.5563C30.5651 24.7318 31.2359 24.061 32.0603 24.061H39.6123C40.1312 24.061 40.5534 24.4831 40.5534 25.002V30.3102C40.5534 30.7284 40.407 31.1367 40.1413 31.4596L37.2136 35.0191C37.0843 35.1764 37.0136 35.3735 37.0136 35.5771V37.8936C37.0136 38.3788 37.4068 38.772 37.8919 38.772C38.377 38.772 38.7702 38.3788 38.7702 37.8936V35.8919L41.4979 32.5756C42.0215 31.9389 42.3099 31.1344 42.3099 30.3102V28.7064H45.3199V38.3341C45.3199 40.1882 46.8283 41.6966 48.6824 41.6966H51.3648C53.2189 41.6966 54.7273 40.1882 54.7273 38.3341V35.9953H57.5418C58.8971 35.9953 59.9996 34.8927 59.9996 33.5374V15.5783C60 14.2231 58.8974 13.1205 57.5421 13.1205ZM2.45788 34.2388C2.07118 34.2388 1.75663 33.9241 1.75663 33.5376V15.5783C1.75663 15.1916 2.07118 14.8771 2.45788 14.8771H5.27235V34.2388H2.45788ZM37.4231 16.1793C38.3305 16.1793 39.0685 16.9174 39.0685 17.8246V21.0947C39.0685 21.5584 38.8717 21.9948 38.535 22.3045H36.311C35.9743 21.9948 35.7776 21.5584 35.7776 21.0947V17.8246C35.7776 16.9174 36.5157 16.1793 37.4231 16.1793ZM30.7302 16.5225C30.7302 15.6153 31.4684 14.8771 32.3756 14.8771C33.2828 14.8771 34.021 15.6153 34.021 16.5225V21.0947C34.021 21.5584 33.8242 21.9948 33.4876 22.3045H32.0605C31.8181 22.3045 31.582 22.332 31.3545 22.3826C30.9635 22.0739 30.7301 21.6041 30.7301 21.0947V16.5225H30.7302ZM25.6827 17.5687C25.6827 16.6615 26.4209 15.9234 27.3281 15.9234C28.2353 15.9234 28.9736 16.6615 28.9736 17.5687V21.0945C28.9736 22.0019 28.2355 22.74 27.3281 22.74C26.4207 22.74 25.6827 22.0019 25.6827 21.0945V17.5687ZM20.6352 18.276C20.6352 17.3687 21.3734 16.6306 22.2806 16.6306C23.1879 16.6306 23.926 17.3687 23.926 18.276V21.0947C23.926 22.002 23.1879 22.7401 22.2806 22.7401C21.3734 22.7401 20.6352 22.002 20.6352 21.0947V18.276ZM14.6799 22.1661H19.0525C19.5026 23.5184 20.7792 24.4967 22.2807 24.4967C23.2811 24.4967 24.1819 24.0624 24.8049 23.3729C25.4279 24.0623 26.328 24.4967 27.3282 24.4967C28.0528 24.4967 28.7235 24.2668 29.2757 23.8791C28.9796 24.3691 28.8088 24.9431 28.8088 25.5563C28.8088 26.0547 28.9218 26.5272 29.1231 26.9497H14.6799V22.1661ZM42.3103 26.9498V25.0021C42.3103 23.8385 41.5697 22.8447 40.5351 22.467C40.5785 22.3688 40.617 22.2683 40.651 22.1661H45.3202V26.9498H42.3103ZM58.2434 33.5376C58.2434 33.9242 57.9288 34.2388 57.5421 34.2388H54.7277V31.7006C54.7277 31.2154 54.3344 30.8223 53.8493 30.8223C53.3643 30.8223 52.971 31.2154 52.971 31.7006V38.3342C52.971 39.2198 52.2506 39.9401 51.3651 39.9401H48.6827C47.7972 39.9401 47.0768 39.2198 47.0768 38.3342V10.7817C47.0768 9.89615 47.7973 9.1757 48.6827 9.1757H51.3651C52.2507 9.1757 52.971 9.89615 52.971 10.7817V27.9574C52.971 28.4426 53.3643 28.8358 53.8493 28.8358C54.3344 28.8358 54.7277 28.4426 54.7277 27.9574V14.8771H57.5421C57.9288 14.8771 58.2434 15.1917 58.2434 15.5783V33.5376Z" fill="white"/>
<path d="M37.892 40.7585C37.4069 40.7585 37.0137 41.1516 37.0137 41.6368V51.7024C37.0137 52.1876 37.4069 52.5807 37.892 52.5807C38.3771 52.5807 38.7703 52.1876 38.7703 51.7024V41.6368C38.7703 41.1516 38.3772 40.7585 37.892 40.7585Z" fill="white"/>
</g>
<defs>
<clipPath id="clip0">
<rect width="60" height="60" fill="white"/>
</clipPath>
</defs>
</svg>
