<svg width="60" height="60" viewBox="0 0 60 60" fill="none" xmlns="http://www.w3.org/2000/svg">
<g clip-path="url(#clip0)">
<path d="M59.1211 43.172C59.6065 43.172 60 42.7786 60 42.2931V40.5933C60 38.875 58.688 37.4771 57.0754 37.4771H55.653V35.6761C55.653 34.416 54.6277 33.3909 53.3677 33.3909H46.2931C45.033 33.3909 44.0078 34.4161 44.0078 35.6761V40.3661C37.688 39.6289 29.8214 39.6277 23.4909 40.3661V35.6761C23.4909 34.416 22.4656 33.3909 21.2056 33.3909H20.6467C25.4648 30.4569 30.8532 26.4782 35.0545 22.6034L37.8133 26.3961C38.5556 27.4168 39.9887 27.6398 41.0057 26.9L46.7269 22.7387C46.7269 22.7387 46.7269 22.7387 46.7269 22.7386C47.7459 21.9975 47.9719 20.5653 47.2307 19.5461L46.1713 18.0897L47.3216 17.2531C48.6258 16.3044 48.8645 14.4022 47.8538 13.0126L43.0831 6.45374C42.0722 5.06437 40.1892 4.70542 38.885 5.65405L37.7346 6.49089L36.6753 5.0346C35.9342 4.01531 34.5021 3.78949 33.4829 4.53058L27.7617 8.6919C26.7427 9.43299 26.5167 10.8651 27.2579 11.8843L30.0166 15.677C24.4706 18.7992 18.1096 23.4247 13.4246 27.7455L11.3953 24.9559C10.2525 23.3847 8.04141 23.0355 6.47051 24.1785L2.75497 26.881C1.18302 28.0246 0.834392 30.2339 1.97779 31.8059L2.30755 32.2593L1.15736 33.0959C-0.172833 34.0633 -0.364903 35.9752 0.625212 37.3365L5.39591 43.8951C5.91786 44.6128 6.68286 45.0693 7.49871 45.1906V48.7036C7.49871 50.4219 8.81074 51.82 10.4234 51.82H11.8458V53.6208C11.8458 54.8809 12.871 55.9061 14.131 55.9061H21.2056C22.4658 55.9061 23.4909 54.8808 23.4909 53.6208V48.9313C25.9888 49.2219 28.7967 49.4046 31.6808 49.4626C31.6869 49.4629 31.6928 49.4629 31.6988 49.4629C32.176 49.4629 32.5676 49.0808 32.5774 48.6015C32.5871 48.1163 32.2016 47.7149 31.7162 47.7052C28.8082 47.6466 25.9831 47.4594 23.4909 47.1614V42.1354C29.7085 41.3902 37.6612 41.3747 44.0078 42.1354V47.1614C41.5158 47.4594 38.6907 47.6466 35.7826 47.7052C35.2973 47.7149 34.9116 48.1163 34.9214 48.6014C34.9311 49.0808 35.3225 49.4629 35.7999 49.4629C35.8059 49.4629 35.812 49.4629 35.818 49.4626C38.7022 49.4046 41.5101 49.2219 44.0078 48.9313V53.6208C44.0078 54.8809 45.0331 55.9061 46.2931 55.9061H53.3677C54.6278 55.9061 55.653 54.8808 55.653 53.6208V51.82H57.0754C58.688 51.82 60 50.4219 60 48.7036V46.395C60 45.9095 59.6065 45.5161 59.1211 45.5161C58.6357 45.5161 58.2422 45.9095 58.2422 46.395V48.7036C58.2422 49.4399 57.708 50.062 57.0755 50.062H55.6531V39.2351H57.0755C57.7078 39.2351 58.2422 39.8572 58.2422 40.5934V42.2932C58.2421 42.7786 58.6357 43.172 59.1211 43.172ZM39.9189 7.07565C40.4302 6.70394 41.2285 6.89249 41.6614 7.48792L46.4321 14.0468C46.8652 14.6421 46.799 15.4596 46.2876 15.8315L45.1373 16.6681C44.4251 15.6887 39.4925 8.90741 38.7686 7.91225L39.9189 7.07565ZM28.6795 10.8505C28.5114 10.6193 28.5647 10.2819 28.7957 10.1137L34.5169 5.9523C34.7491 5.78366 35.086 5.83816 35.2536 6.06866C35.6094 6.5578 43.808 17.8293 44.2326 18.4132C44.2328 18.4134 44.2329 18.4136 44.2332 18.4139L45.809 20.5802C45.9772 20.8114 45.924 21.1488 45.6927 21.317L39.9714 25.4784C39.7392 25.6471 39.4052 25.5963 39.2349 25.362C38.8881 24.8854 29.098 11.4258 28.6795 10.8505ZM31.0573 17.1081L34.0139 21.1726C29.4411 25.4166 23.027 30.1083 17.4215 33.2404L14.4655 29.1765C19.026 24.9435 25.444 20.2445 31.0573 17.1081ZM7.49871 40.5933V43.3833C7.23727 43.2859 6.99563 43.1057 6.81774 42.861L2.04705 36.3023C1.59412 35.6798 1.69537 34.8784 2.19154 34.5175L3.34173 33.6809C3.48118 33.8727 4.57302 35.3737 7.65047 39.6047C7.54571 39.9377 7.49871 40.2813 7.49871 40.5933ZM11.8458 50.0619H10.4234C9.79102 50.0619 9.25664 49.4399 9.25664 48.7035C9.25664 47.9094 9.25664 41.421 9.25664 40.5932C9.25664 40.2862 9.35801 39.9547 9.55875 39.6943C9.79781 39.3836 10.1211 39.2349 10.4234 39.2349H11.8457V50.0619H11.8458ZM11.8458 35.676V37.477H10.4234C10.352 37.477 10.2813 37.4806 10.2111 37.4861C10.1987 37.487 10.1863 37.488 10.1739 37.4891C9.62965 37.5384 9.12762 37.7468 8.70891 38.0709L3.3995 30.7716C2.82622 29.9837 3.00095 28.8759 3.78903 28.3026L7.50457 25.6001C8.28914 25.0291 9.40254 25.2045 9.97359 25.9898C10.6136 26.8695 14.672 32.4492 15.3568 33.3906H14.1309C12.871 33.3906 11.8458 34.4159 11.8458 35.676ZM21.7331 53.6207C21.7331 53.9065 21.4916 54.148 21.2058 54.148H14.1312C13.8453 54.148 13.6038 53.9065 13.6038 53.6207C13.6038 52.7935 13.6038 36.2154 13.6038 35.6761C13.6038 35.3903 13.8453 35.1488 14.1312 35.1488C15.9198 35.1488 16.9073 35.1488 17.4214 35.1488C17.792 35.1488 17.9167 35.1488 17.9177 35.1488C18.4316 35.1488 19.4185 35.1488 21.2058 35.1488C21.4916 35.1488 21.7331 35.3903 21.7331 35.6761C21.7331 36.7638 21.7331 52.9519 21.7331 53.6207ZM53.8951 53.6207C53.8951 53.9065 53.6536 54.148 53.3678 54.148H46.2932C46.0074 54.148 45.7659 53.9065 45.7659 53.6207V35.6761C45.7659 35.3903 46.0074 35.1488 46.2932 35.1488H53.3678C53.6536 35.1488 53.8951 35.3903 53.8951 35.6761C53.8951 36.7587 53.8951 53.0399 53.8951 53.6207Z" fill="white"/>
</g>
<defs>
<clipPath id="clip0">
<rect width="60" height="60" fill="white"/>
</clipPath>
</defs>
</svg>
