<svg width="143" height="48" viewBox="0 0 143 48" fill="none" xmlns="http://www.w3.org/2000/svg">
<path d="M11.572 37.788C11.572 38.9 11.184 39.772 10.408 40.404C9.632 41.036 8.536 41.376 7.12 41.424V42.312H6.004V41.424C4.588 41.368 3.488 41.024 2.704 40.392C1.928 39.76 1.54 38.892 1.54 37.788C1.54 36.676 1.928 35.804 2.704 35.172C3.488 34.54 4.588 34.196 6.004 34.14V33.288H7.12V34.14C8.528 34.196 9.62 34.544 10.396 35.184C11.18 35.816 11.572 36.684 11.572 37.788ZM7.12 40.488C8.192 40.424 9.008 40.164 9.568 39.708C10.136 39.244 10.42 38.6 10.42 37.776C10.42 36.968 10.132 36.336 9.556 35.88C8.988 35.416 8.176 35.152 7.12 35.088V40.488ZM2.704 37.788C2.704 38.604 2.988 39.244 3.556 39.708C4.132 40.164 4.948 40.424 6.004 40.488V35.088C4.932 35.152 4.112 35.412 3.544 35.868C2.984 36.324 2.704 36.964 2.704 37.788ZM15.0254 35.64H16.1774V40.272L20.0774 35.64H21.1214V42H19.9694V37.368L16.0814 42H15.0254V35.64ZM29.8974 36.648H27.5694V42H26.4174V36.648H24.0894V35.64H29.8974V36.648ZM32.8754 35.64H34.0274V38.34H37.6514V35.64H38.8034V42H37.6514V39.336H34.0274V42H32.8754V35.64ZM48.5913 38.856C48.5913 38.944 48.5833 39.06 48.5673 39.204H43.4073C43.4793 39.764 43.7233 40.216 44.1393 40.56C44.5633 40.896 45.0873 41.064 45.7113 41.064C46.4713 41.064 47.0833 40.808 47.5473 40.296L48.1833 41.04C47.8953 41.376 47.5353 41.632 47.1033 41.808C46.6793 41.984 46.2033 42.072 45.6753 42.072C45.0033 42.072 44.4073 41.936 43.8873 41.664C43.3673 41.384 42.9633 40.996 42.6753 40.5C42.3953 40.004 42.2553 39.444 42.2553 38.82C42.2553 38.204 42.3913 37.648 42.6633 37.152C42.9433 36.656 43.3233 36.272 43.8033 36C44.2913 35.72 44.8393 35.58 45.4473 35.58C46.0553 35.58 46.5953 35.72 47.0673 36C47.5473 36.272 47.9193 36.656 48.1833 37.152C48.4553 37.648 48.5913 38.216 48.5913 38.856ZM45.4473 36.552C44.8953 36.552 44.4313 36.72 44.0553 37.056C43.6873 37.392 43.4713 37.832 43.4073 38.376H47.4873C47.4233 37.84 47.2033 37.404 46.8273 37.068C46.4593 36.724 45.9993 36.552 45.4473 36.552ZM54.9505 42.072C54.3025 42.072 53.7225 41.932 53.2105 41.652C52.7065 41.372 52.3105 40.988 52.0225 40.5C51.7345 40.004 51.5905 39.444 51.5905 38.82C51.5905 38.196 51.7345 37.64 52.0225 37.152C52.3105 36.656 52.7065 36.272 53.2105 36C53.7225 35.72 54.3025 35.58 54.9505 35.58C55.5265 35.58 56.0385 35.696 56.4865 35.928C56.9425 36.16 57.2945 36.496 57.5425 36.936L56.6665 37.5C56.4665 37.196 56.2185 36.968 55.9225 36.816C55.6265 36.664 55.2985 36.588 54.9385 36.588C54.5225 36.588 54.1465 36.68 53.8105 36.864C53.4825 37.048 53.2225 37.312 53.0305 37.656C52.8465 37.992 52.7545 38.38 52.7545 38.82C52.7545 39.268 52.8465 39.664 53.0305 40.008C53.2225 40.344 53.4825 40.604 53.8105 40.788C54.1465 40.972 54.5225 41.064 54.9385 41.064C55.2985 41.064 55.6265 40.988 55.9225 40.836C56.2185 40.684 56.4665 40.456 56.6665 40.152L57.5425 40.704C57.2945 41.144 56.9425 41.484 56.4865 41.724C56.0385 41.956 55.5265 42.072 54.9505 42.072ZM60.2731 38.208H63.5011V39.204H60.2731V38.208ZM69.5708 39.312H68.2508V42H67.0988V35.64H68.2508V38.328H69.5948L71.6588 35.64H72.8948L70.4828 38.7L73.0628 42H71.7068L69.5708 39.312ZM81.5307 35.64V42H80.3787V36.648H77.6427L77.5707 38.064C77.5307 38.92 77.4547 39.636 77.3427 40.212C77.2307 40.78 77.0467 41.236 76.7907 41.58C76.5347 41.924 76.1787 42.096 75.7227 42.096C75.5147 42.096 75.2787 42.06 75.0147 41.988L75.0867 41.016C75.1907 41.04 75.2867 41.052 75.3747 41.052C75.6947 41.052 75.9347 40.912 76.0947 40.632C76.2547 40.352 76.3587 40.02 76.4067 39.636C76.4547 39.252 76.4987 38.704 76.5387 37.992L76.6467 35.64H81.5307ZM91.2342 35.64L88.1502 42.636C87.8782 43.284 87.5582 43.74 87.1902 44.004C86.8302 44.268 86.3942 44.4 85.8822 44.4C85.5702 44.4 85.2662 44.348 84.9702 44.244C84.6822 44.148 84.4422 44.004 84.2502 43.812L84.7422 42.948C85.0702 43.26 85.4502 43.416 85.8822 43.416C86.1622 43.416 86.3942 43.34 86.5782 43.188C86.7702 43.044 86.9422 42.792 87.0942 42.432L87.2982 41.988L84.4902 35.64H85.6902L87.9102 40.728L90.1062 35.64H91.2342ZM97.3716 35.856C97.9636 35.856 98.4916 35.988 98.9556 36.252C99.4196 36.516 99.7796 36.884 100.036 37.356C100.3 37.82 100.432 38.352 100.432 38.952C100.432 39.568 100.292 40.116 100.012 40.596C99.7396 41.068 99.3516 41.436 98.8476 41.7C98.3516 41.964 97.7836 42.096 97.1436 42.096C96.0636 42.096 95.2276 41.728 94.6356 40.992C94.0516 40.248 93.7596 39.204 93.7596 37.86C93.7596 36.556 94.0276 35.536 94.5636 34.8C95.0996 34.056 95.9196 33.564 97.0236 33.324L99.9276 32.676L100.096 33.732L97.4196 34.308C96.5876 34.492 95.9676 34.804 95.5596 35.244C95.1516 35.684 94.9196 36.316 94.8636 37.14C95.1356 36.732 95.4876 36.416 95.9196 36.192C96.3516 35.968 96.8356 35.856 97.3716 35.856ZM97.1676 41.136C97.5756 41.136 97.9356 41.044 98.2476 40.86C98.5676 40.676 98.8156 40.424 98.9916 40.104C99.1676 39.776 99.2556 39.404 99.2556 38.988C99.2556 38.356 99.0636 37.848 98.6796 37.464C98.2956 37.08 97.7916 36.888 97.1676 36.888C96.5436 36.888 96.0356 37.08 95.6436 37.464C95.2596 37.848 95.0676 38.356 95.0676 38.988C95.0676 39.404 95.1556 39.776 95.3316 40.104C95.5156 40.424 95.7676 40.676 96.0876 40.86C96.4076 41.044 96.7676 41.136 97.1676 41.136Z" fill="white"/>
<path d="M6.92 30H0.68L9.16 7.6H15.56L24.04 30H17.8L16.36 26H8.36L6.92 30ZM9.8 21.84H14.92L12.36 14.32L9.8 21.84ZM36.8287 30H31.0687V12.08H24.3487V7.6H43.5487V12.08H36.8287V30ZM54.1037 25.36C53.9971 26.896 53.5064 28.112 52.6317 29.008C51.7571 29.8827 50.6797 30.32 49.3997 30.32C48.1197 30.32 46.9144 30.2133 45.7837 30V25.68H47.2237C47.6291 25.68 47.9597 25.5413 48.2157 25.264C48.4931 24.9867 48.6424 24.6453 48.6637 24.24L49.6237 7.6H67.3838V30H61.6237V12.08H54.9037L54.1037 25.36ZM77.7875 30H71.5475L80.0275 7.6H86.4275L94.9075 30H88.6675L87.2275 26H79.2275L77.7875 30ZM80.6675 21.84H85.7875L83.2275 14.32L80.6675 21.84ZM118.586 30H112.826V20.88H104.826V30H99.0662V7.6H104.826V16.4H112.826V7.6H118.586V30ZM135.881 30H130.121V12.08H123.401V7.6H142.601V12.08H135.881V30Z" fill="#CDC09F"/>
</svg>
