<svg width="15" height="15" viewBox="0 0 15 15" fill="none" xmlns="http://www.w3.org/2000/svg">
<g clip-path="url(#clip0)">
<path d="M0.259382 6.99725L3.92751 8.82538C4.06938 8.89538 4.23688 8.89038 4.37251 8.811L7.63751 6.91288L5.66126 8.66413C5.56063 8.7535 5.50313 8.881 5.50313 9.01538V13.281C5.50313 13.731 6.07751 13.9204 6.34688 13.5629L7.93251 11.4548L11.8538 13.6879C12.1288 13.846 12.4813 13.6873 12.545 13.3729L14.9906 1.18538C15.0638 0.819128 14.6994 0.520378 14.3606 0.656628L0.298132 6.141C-0.0793678 6.2885 -0.103743 6.81663 0.259382 6.99725ZM13.9031 1.84163L11.7538 12.5523L8.03813 10.436C7.83563 10.3204 7.57501 10.3716 7.43126 10.5616L6.44063 11.8785V9.226L11.785 4.491C12.2081 4.11663 11.7219 3.451 11.2388 3.73475L4.12001 7.8735L1.62501 6.63038L13.9031 1.84163Z" fill="black"/>
</g>
<defs>
<clipPath id="clip0">
<rect width="15" height="15" fill="white"/>
</clipPath>
</defs>
</svg>
