<svg width="15" height="9" viewBox="0 0 15 9" fill="none" xmlns="http://www.w3.org/2000/svg">
<path fill-rule="evenodd" clip-rule="evenodd" d="M14.6562 0.7175C14.76 0.37625 14.6562 0.125 14.1594 0.125H12.5188C12.1013 0.125 11.9087 0.341875 11.8044 0.58125C11.8044 0.58125 10.97 2.57875 9.78813 3.87625C9.40563 4.2525 9.23188 4.37187 9.02312 4.37187C8.91875 4.37187 8.76188 4.2525 8.76188 3.91062V0.7175C8.76188 0.3075 8.64688 0.125 8.29938 0.125H5.71938C5.45875 0.125 5.30188 0.315 5.30188 0.495625C5.30188 0.88375 5.89313 0.97375 5.95375 2.06625V4.44C5.95375 4.96063 5.85812 5.055 5.64937 5.055C5.09312 5.055 3.74 3.04812 2.93687 0.751875C2.78125 0.305 2.62375 0.125 2.20438 0.125H0.5625C0.09375 0.125 0 0.341875 0 0.58125C0 1.0075 0.55625 3.125 2.59063 5.92562C3.94688 7.83813 5.85625 8.875 7.59562 8.875C8.63875 8.875 8.7675 8.645 8.7675 8.24813V6.8025C8.7675 6.34188 8.86625 6.25 9.19687 6.25C9.44063 6.25 9.8575 6.37 10.8313 7.29187C11.9438 8.385 12.1269 8.875 12.7531 8.875H14.3938C14.8625 8.875 15.0975 8.645 14.9625 8.19C14.8138 7.7375 14.2825 7.08063 13.5781 6.30125C13.1956 5.8575 12.6219 5.37937 12.4475 5.14C12.2044 4.83313 12.2738 4.69625 12.4475 4.42312C12.4475 4.42312 14.4475 1.65688 14.6556 0.7175H14.6562Z" fill="black"/>
</svg>
