<svg width="15" height="15" viewBox="0 0 15 15" fill="none" xmlns="http://www.w3.org/2000/svg">
<g clip-path="url(#clip0)">
<path d="M7.49923 12.949C7.49797 12.949 7.49659 12.949 7.49522 12.949C7.0426 12.9459 3.04129 12.9094 1.90763 12.6028C1.11536 12.3899 0.489936 11.7651 0.276389 10.9727C-0.0202428 9.8591 -0.00136002 7.71504 0.00069992 7.54384C-0.00124558 7.37344 -0.0203573 5.21165 0.275473 4.08886C0.275816 4.08783 0.276045 4.08669 0.276389 4.08566C0.487532 3.30231 1.12703 2.65823 1.90569 2.44469C1.90763 2.44412 1.90969 2.44366 1.91164 2.44309C3.03247 2.14851 7.04169 2.11246 7.49522 2.10938H7.50335C7.9571 2.11246 11.9691 2.14897 13.0923 2.45602C13.8825 2.66842 14.5075 3.29235 14.7216 4.08371C15.0293 5.2073 15.0008 7.37378 14.9978 7.55666C14.9999 7.73679 15.0179 9.86162 14.723 10.9809C14.7227 10.982 14.7224 10.983 14.7222 10.9841C14.5085 11.7764 13.8832 12.4012 13.09 12.6144C13.089 12.6147 13.0878 12.615 13.0868 12.6153C11.9661 12.9098 7.95676 12.9458 7.50335 12.949C7.50197 12.949 7.5006 12.949 7.49923 12.949ZM1.40821 4.38939C1.14774 5.38045 1.17235 7.51466 1.17258 7.53617V7.55162C1.16479 8.14351 1.19215 9.85761 1.40833 10.6695C1.51315 11.0582 1.82157 11.3662 2.21273 11.4713C3.04918 11.6976 6.30812 11.7688 7.49923 11.7771C8.69342 11.7688 11.9572 11.6995 12.7874 11.4823C13.1773 11.3768 13.4847 11.0699 13.5902 10.6807C13.8066 9.85693 13.8338 8.15118 13.8259 7.56307C13.8259 7.55689 13.8259 7.55071 13.826 7.54453C13.8367 6.94554 13.8156 5.21142 13.5913 4.39305C13.591 4.39225 13.5908 4.39145 13.5907 4.39064C13.4854 4.00017 13.1769 3.69221 12.7857 3.58704C11.9574 3.36056 8.69319 3.28961 7.49923 3.28125C6.30583 3.28961 3.04529 3.35873 2.2125 3.57571C1.82878 3.68214 1.51338 4.00109 1.40821 4.38939ZM14.1564 10.8316H14.1567H14.1564ZM6.00565 9.90213V5.15614L10.1072 7.52919L6.00565 9.90213Z" fill="black"/>
</g>
<defs>
<clipPath id="clip0">
<rect width="15" height="15" fill="white"/>
</clipPath>
</defs>
</svg>
